<?xml version="1.0" encoding="UTF-8" standalone="no"?>
<!-- Created with Inkscape (http://www.inkscape.org/) -->

<svg
   xmlns:dc="http://purl.org/dc/elements/1.1/"
   xmlns:cc="http://creativecommons.org/ns#"
   xmlns:rdf="http://www.w3.org/1999/02/22-rdf-syntax-ns#"
   xmlns:svg="http://www.w3.org/2000/svg"
   xmlns="http://www.w3.org/2000/svg"
   xmlns:sodipodi="http://sodipodi.sourceforge.net/DTD/sodipodi-0.dtd"
   xmlns:inkscape="http://www.inkscape.org/namespaces/inkscape"
   width="210mm"
   height="297mm"
   viewBox="0 0 210 297"
   version="1.1"
   id="svg8"
   inkscape:version="0.92.3 (2405546, 2018-03-11)"
   sodipodi:docname="_icons.svg"
   inkscape:export-filename="D:\perevalovds.com\_2020\XCLU\XCLU\images\modules\_icons.png"
   inkscape:export-xdpi="800"
   inkscape:export-ydpi="800">
  <defs
     id="defs2" />
  <sodipodi:namedview
     id="base"
     pagecolor="#ffffff"
     bordercolor="#666666"
     borderopacity="1.0"
     inkscape:pageopacity="0.0"
     inkscape:pageshadow="2"
     inkscape:zoom="3.959798"
     inkscape:cx="276.70202"
     inkscape:cy="648.7433"
     inkscape:document-units="mm"
     inkscape:current-layer="layer1"
     showgrid="false"
     inkscape:window-width="1920"
     inkscape:window-height="1001"
     inkscape:window-x="-9"
     inkscape:window-y="-9"
     inkscape:window-maximized="1" />
  <metadata
     id="metadata5">
    <rdf:RDF>
      <cc:Work
         rdf:about="">
        <dc:format>image/svg+xml</dc:format>
        <dc:type
           rdf:resource="http://purl.org/dc/dcmitype/StillImage" />
        <dc:title></dc:title>
      </cc:Work>
    </rdf:RDF>
  </metadata>
  <g
     inkscape:label="Layer 1"
     inkscape:groupmode="layer"
     id="layer1">
    <path
       id="path815"
       d="m 67.291974,120.21981 v 1.98682 c 0,0.0624 -0.05058,0.11298 -0.112978,0.11298 -0.06239,0 -0.112978,-0.0506 -0.112978,-0.11298 v -1.98682 l -0.71096,0.71097 c -0.04412,0.0442 -0.115654,0.0442 -0.159775,0 -0.04412,-0.0442 -0.04412,-0.11565 0,-0.15978 l 0.903826,-0.90382 c 0.04412,-0.0442 0.115655,-0.0442 0.159775,0 l 0.903826,0.90382 c 0.04412,0.0442 0.04412,0.11566 0,0.15978 -0.04412,0.0442 -0.115655,0.0442 -0.159776,0 z m 2.033605,0.85704 c 0,1.18552 -0.961056,2.14658 -2.146583,2.14658 -1.185526,0 -2.146585,-0.96106 -2.146585,-2.14658 0,-1.18553 0.961059,-2.14659 2.146585,-2.14659 1.185527,0 2.146583,0.96106 2.146583,2.14659 z m -0.225954,0 c 0,-1.06073 -0.859894,-1.92064 -1.920629,-1.92064 -1.060734,0 -1.920629,0.85991 -1.920629,1.92064 0,1.06073 0.859895,1.92063 1.920629,1.92063 1.060735,0 1.920629,-0.8599 1.920629,-1.92063 z"
       inkscape:connector-curvature="0"
       style="stroke-width:0.26458332" />
    <path
       id="path826"
       d="m 74.254379,119.74316 0.318517,-0.0651 c 0.135778,-0.0278 0.274102,0.0344 0.343398,0.15446 l 0.167269,0.28972 c 0.06929,0.12003 0.05402,0.27092 -0.03794,0.37462 l -0.215495,0.24302 c 0.01862,0.10183 0.02807,0.20572 0.02807,0.31078 0,0.10506 -0.0095,0.20896 -0.02807,0.31079 l 0.215495,0.24301 c 0.09195,0.1037 0.107232,0.2546 0.03794,0.37462 l -0.167269,0.28972 c -0.06929,0.12003 -0.20762,0.18224 -0.343398,0.15446 l -0.318517,-0.0651 c -0.158805,0.13537 -0.341025,0.24099 -0.53805,0.31104 l -0.102648,0.30794 c -0.04382,0.13148 -0.16687,0.22017 -0.305462,0.22017 h -0.334538 c -0.138592,0 -0.261635,-0.0887 -0.305461,-0.22017 l -0.102649,-0.30794 c -0.197024,-0.07 -0.379245,-0.17567 -0.538049,-0.31104 l -0.318517,0.0651 c -0.135779,0.0278 -0.274103,-0.0344 -0.3434,-0.15446 l -0.167268,-0.28971 c -0.06929,-0.12003 -0.05402,-0.27093 0.03794,-0.37463 l 0.215496,-0.24301 c -0.01862,-0.10183 -0.02807,-0.20573 -0.02807,-0.31079 0,-0.10506 0.0095,-0.20895 0.02807,-0.31078 l -0.215495,-0.24302 c -0.09195,-0.1037 -0.107233,-0.25459 -0.03794,-0.37462 l 0.167268,-0.28972 c 0.06929,-0.12002 0.207621,-0.18224 0.3434,-0.15446 l 0.318517,0.0651 c 0.158804,-0.13536 0.341024,-0.24098 0.538049,-0.31103 l 0.102648,-0.30795 c 0.04382,-0.13147 0.16687,-0.22016 0.305462,-0.22016 h 0.334538 c 0.138592,0 0.261635,0.0887 0.305462,0.22016 l 0.102647,0.30795 c 0.197026,0.07 0.379246,0.17567 0.53805,0.31103 z m -0.655647,-0.1242 c -0.03263,-0.0105 -0.05832,-0.0358 -0.06915,-0.0683 l -0.119535,-0.3586 c -0.01461,-0.0438 -0.05563,-0.0734 -0.101821,-0.0734 h -0.33454 c -0.0462,0 -0.08721,0.0295 -0.101821,0.0734 l -0.119535,0.3586 c -0.01083,0.0326 -0.03653,0.0578 -0.06915,0.0683 -0.205187,0.0656 -0.393496,0.17479 -0.552643,0.31948 -0.02535,0.023 -0.06016,0.0327 -0.09372,0.0257 l -0.37084,-0.0758 c -0.04526,-0.009 -0.09137,0.0115 -0.114466,0.0515 l -0.167269,0.28972 c -0.02309,0.04 -0.018,0.0903 0.01265,0.12486 l 0.250872,0.28292 c 0.0227,0.0256 0.03184,0.0605 0.0246,0.0939 -0.02253,0.1041 -0.03399,0.21097 -0.03399,0.3194 0,0.10843 0.01146,0.21529 0.03399,0.3194 0.0072,0.0334 -0.0019,0.0683 -0.0246,0.0939 l -0.250872,0.28292 c -0.03065,0.0345 -0.03575,0.0849 -0.01265,0.12486 l 0.167269,0.28973 c 0.02309,0.04 0.0692,0.0608 0.114466,0.0515 l 0.37084,-0.0759 c 0.03355,-0.007 0.06838,0.003 0.09372,0.0257 0.159147,0.14469 0.347455,0.25392 0.552643,0.31948 0.03263,0.0105 0.05832,0.0358 0.06915,0.0683 l 0.119535,0.3586 c 0.01461,0.0438 0.05563,0.0735 0.101821,0.0735 h 0.334538 c 0.0462,0 0.08721,-0.0295 0.10182,-0.0735 l 0.119536,-0.3586 c 0.01083,-0.0326 0.03653,-0.0578 0.06915,-0.0683 0.205188,-0.0656 0.393496,-0.17479 0.552643,-0.31948 0.02535,-0.023 0.06016,-0.0326 0.09371,-0.0257 l 0.370839,0.0759 c 0.04526,0.009 0.09137,-0.0115 0.114467,-0.0515 l 0.167269,-0.28973 c 0.02309,-0.04 0.018,-0.0903 -0.01264,-0.12486 l -0.250873,-0.28292 c -0.02269,-0.0255 -0.03183,-0.0605 -0.0246,-0.0939 0.02253,-0.10411 0.03399,-0.21097 0.03399,-0.3194 0,-0.10843 -0.01146,-0.2153 -0.03399,-0.3194 -0.0072,-0.0334 0.0019,-0.0683 0.0246,-0.0939 l 0.250873,-0.28292 c 0.03065,-0.0345 0.03575,-0.0848 0.01264,-0.12486 l -0.167269,-0.28972 c -0.0231,-0.04 -0.0692,-0.0608 -0.114467,-0.0515 l -0.370839,0.0758 c -0.03355,0.007 -0.06837,-0.003 -0.09371,-0.0257 -0.159146,-0.14469 -0.347454,-0.25392 -0.552643,-0.31948 z m -0.457782,2.29024 c -0.474206,0 -0.858625,-0.38441 -0.858625,-0.85862 0,-0.4742 0.384419,-0.85862 0.858625,-0.85862 0.474206,0 0.858625,0.38442 0.858625,0.85862 0,0.47421 -0.384419,0.85862 -0.858625,0.85862 z m 0,-0.21465 c 0.355654,0 0.643969,-0.28831 0.643969,-0.64397 0,-0.35565 -0.288315,-0.64397 -0.643969,-0.64397 -0.355654,0 -0.643969,0.28832 -0.643969,0.64397 0,0.35566 0.288315,0.64397 0.643969,0.64397 z"
       inkscape:connector-curvature="0"
       style="stroke-width:0.26458332" />
    <path
       id="path837"
       d="m 69.018118,107.74468 v 2.55016 c 0,0.0625 0.05063,0.11307 0.113073,0.11307 0.02264,0 0.04475,-0.007 0.06349,-0.0195 l 1.853612,-1.25781 c 0.06121,-0.0416 0.07716,-0.12484 0.03563,-0.18605 -0.0095,-0.014 -0.02161,-0.0261 -0.03563,-0.0356 l -1.853613,-1.25781 c -0.05167,-0.035 -0.12199,-0.0216 -0.157054,0.0301 -0.01271,0.0187 -0.01951,0.0408 -0.01951,0.0635 z m -0.173957,0 c 0,-0.0575 0.01725,-0.11361 0.04952,-0.16117 0.08901,-0.13117 0.267504,-0.16535 0.398677,-0.0763 l 1.853613,1.25781 c 0.03224,0.0219 0.06002,0.0496 0.08189,0.0819 0.09548,0.14071 0.05882,0.33219 -0.08189,0.42768 l -1.853613,1.2578 c -0.04756,0.0323 -0.103699,0.0495 -0.161167,0.0495 -0.158522,0 -0.287029,-0.12851 -0.287029,-0.28703 z"
       inkscape:connector-curvature="0"
       style="fill:#000000;fill-opacity:1;stroke:none;stroke-width:0.26458332;stroke-opacity:1" />
    <path
       id="path848"
       d="m 52.434747,129.28251 h 0.926042 c 0.07306,0 0.132291,0.0592 0.132291,0.13229 0,0.0731 -0.05923,0.13229 -0.132291,0.13229 h -0.926042 v 0.92604 c 0,0.0731 -0.05923,0.1323 -0.132292,0.1323 -0.07306,0 -0.132291,-0.0592 -0.132291,-0.1323 v -0.92604 h -0.926042 c -0.07306,0 -0.132292,-0.0592 -0.132292,-0.13229 0,-0.0731 0.05923,-0.13229 0.132292,-0.13229 h 0.926042 v -0.92604 c 0,-0.0731 0.05923,-0.13229 0.132291,-0.13229 0.07306,0 0.132292,0.0592 0.132292,0.13229 z m -2.645833,-1.71979 c 0,-0.36532 0.296145,-0.66146 0.661458,-0.66146 h 3.704167 c 0.365313,0 0.661458,0.29614 0.661458,0.66146 v 3.70416 c 0,0.36532 -0.296145,0.66146 -0.661458,0.66146 h -3.704167 c -0.365313,0 -0.661458,-0.29614 -0.661458,-0.66146 z m 0.264583,0 v 3.70416 c 0,0.21919 0.177687,0.39688 0.396875,0.39688 h 3.704167 c 0.219188,0 0.396875,-0.17769 0.396875,-0.39688 v -3.70416 c 0,-0.21919 -0.177687,-0.39688 -0.396875,-0.39688 h -3.704167 c -0.219188,0 -0.396875,0.17769 -0.396875,0.39688 z"
       inkscape:connector-curvature="0"
       style="stroke-width:0.26458332" />
    <path
       id="path859"
       d="m 73.302781,107.68455 c -0.181825,0 -0.329222,0.1474 -0.329222,0.32923 v 1.97532 c 0,0.18182 0.147397,0.32923 0.329222,0.32923 h 1.977444 c 0.181826,0 0.329222,-0.14741 0.329222,-0.32923 v -1.97532 c 0,-0.18183 -0.147396,-0.32923 -0.329222,-0.32923 z m 0.987667,-0.21949 h 0.989777 c 0.303042,0 0.548704,0.24566 0.548704,0.54872 v 0.98766 h 0.107631 c 0.0606,0 0.109741,0.0491 0.109741,0.10974 0,0.0606 -0.04913,0.10973 -0.109741,0.10973 h -0.107631 v 0.76819 c 0,0.30305 -0.245662,0.54871 -0.548704,0.54871 h -1.977444 c -0.303041,0 -0.548704,-0.24566 -0.548704,-0.54871 v -1.97532 c 0,-0.30306 0.245663,-0.54872 0.548704,-0.54872 h 0.768186 v -0.10974 c 0,-0.0606 0.04913,-0.10974 0.10974,-0.10974 0.0606,0 0.109741,0.0491 0.109741,0.10974 z m 0.329222,-1.31688 c 0.0606,0 0.109742,0.0491 0.109742,0.10974 0,0.0606 -0.04914,0.10974 -0.109742,0.10974 -0.181824,0 -0.329222,0.14739 -0.329222,0.32922 0,0.0606 -0.04913,0.10974 -0.109741,0.10974 -0.0606,0 -0.10974,-0.0491 -0.10974,-0.10974 0,-0.30304 0.245663,-0.5487 0.548703,-0.5487 z m 1.975335,0.21948 c -0.0606,0 -0.10974,-0.0491 -0.10974,-0.10974 0,-0.0606 0.04914,-0.10974 0.10974,-0.10974 0.303042,0 0.548704,0.24566 0.548704,0.5487 0,0.0606 -0.04913,0.10974 -0.10974,0.10974 -0.0606,0 -0.109742,-0.0491 -0.109742,-0.10974 0,-0.18183 -0.147397,-0.32922 -0.329222,-0.32922 z m 0.329222,0.98766 c 0,-0.0606 0.04914,-0.10974 0.109742,-0.10974 0.0606,0 0.10974,0.0491 0.10974,0.10974 v 0.65846 c 0,0.0606 -0.04913,0.10974 -0.10974,0.10974 -0.0606,0 -0.109742,-0.0491 -0.109742,-0.10974 z m 0,1.3169 c 0,-0.0606 0.04914,-0.10975 0.109742,-0.10975 0.0606,0 0.10974,0.0491 0.10974,0.10975 0,0.30303 -0.245662,0.54869 -0.548704,0.54869 -0.0606,0 -0.10974,-0.0491 -0.10974,-0.10973 0,-0.0606 0.04914,-0.10974 0.10974,-0.10974 0.181825,0 0.329222,-0.1474 0.329222,-0.32922 z m -0.987667,-2.52404 c 0.0606,0 0.109741,0.0491 0.109741,0.10974 0,0.0606 -0.04913,0.10974 -0.109741,0.10974 h -0.658444 c -0.0606,0 -0.109741,-0.0491 -0.109741,-0.10974 0,-0.0606 0.04914,-0.10974 0.109741,-0.10974 z"
       inkscape:connector-curvature="0"
       style="stroke-width:0.26458332" />
    <path
       id="path870"
       d="m 86.416497,119.62593 v 2.9714 c 0,0.32822 -0.266068,0.59428 -0.59428,0.59428 h -2.139406 c -0.328211,0 -0.594279,-0.26606 -0.594279,-0.59428 v -2.9714 h -0.118857 c -0.06564,0 -0.118855,-0.0532 -0.118855,-0.11885 0,-0.0657 0.05321,-0.11886 0.118855,-0.11886 h 1.069704 v -0.11886 c 0,-0.19692 0.159641,-0.35656 0.356567,-0.35656 h 0.713136 c 0.196926,0 0.356568,0.15964 0.356568,0.35656 v 0.11886 h 1.069702 c 0.06564,0 0.118856,0.0532 0.118856,0.11886 0,0.0657 -0.05321,0.11885 -0.118856,0.11885 z m -3.090254,0 v 2.9714 c 0,0.19693 0.159641,0.35657 0.356568,0.35657 h 2.139406 c 0.196927,0 0.356568,-0.15964 0.356568,-0.35657 v -2.9714 z m 1.901695,-0.23771 v -0.11886 c 0,-0.0657 -0.05321,-0.11885 -0.118856,-0.11885 h -0.713136 c -0.06564,0 -0.118855,0.0532 -0.118855,0.11885 v 0.11886 z m 0,1.0697 c 0,-0.0657 0.05321,-0.11885 0.118856,-0.11885 0.06564,0 0.118856,0.0532 0.118856,0.11885 v 1.66399 c 0,0.0657 -0.05321,0.11885 -0.118856,0.11885 -0.06564,0 -0.118856,-0.0532 -0.118856,-0.11885 z m -1.188559,0 c 0,-0.0657 0.05321,-0.11885 0.118856,-0.11885 0.06564,0 0.118856,0.0532 0.118856,0.11885 v 1.66399 c 0,0.0657 -0.05321,0.11885 -0.118856,0.11885 -0.06564,0 -0.118856,-0.0532 -0.118856,-0.11885 z"
       inkscape:connector-curvature="0"
       style="stroke-width:0.26458332" />
    <path
       id="path881"
       d="m 62.006208,121.89918 0.71096,-0.71097 c 0.04412,-0.0442 0.115655,-0.0442 0.159775,0 0.04412,0.0442 0.04412,0.11566 0,0.15978 l -0.903825,0.90382 c -0.04412,0.0442 -0.115655,0.0442 -0.159776,0 l -0.903825,-0.90382 c -0.04412,-0.0442 -0.04412,-0.11566 0,-0.15978 0.04412,-0.0442 0.115654,-0.0442 0.159775,0 l 0.71096,0.71097 v -1.98682 c 0,-0.0624 0.05058,-0.11298 0.112978,-0.11298 0.06239,0 0.112978,0.0506 0.112978,0.11298 z m 2.033608,-0.85704 c 0,1.18553 -0.961059,2.14659 -2.146586,2.14659 -1.185526,0 -2.146586,-0.96106 -2.146586,-2.14659 0,-1.18552 0.96106,-2.14658 2.146586,-2.14658 1.185527,0 2.146586,0.96106 2.146586,2.14658 z m -0.225956,0 c 0,-1.06073 -0.859895,-1.92063 -1.92063,-1.92063 -1.060734,0 -1.920629,0.8599 -1.920629,1.92063 0,1.06074 0.859895,1.92064 1.920629,1.92064 1.060735,0 1.92063,-0.8599 1.92063,-1.92064 z"
       inkscape:connector-curvature="0"
       style="stroke-width:0.26458332" />
    <path
       id="path902"
       d="m 54.324592,120.92292 h 0.870359 c 0.06867,0 0.124338,0.0556 0.124338,0.12434 0,0.0686 -0.05568,0.12434 -0.124338,0.12434 h -0.870359 v 0.87035 c 0,0.0686 -0.05568,0.12434 -0.124338,0.12434 -0.06867,0 -0.124338,-0.0556 -0.124338,-0.12434 v -0.87035 h -0.870359 c -0.06866,0 -0.124338,-0.0556 -0.124338,-0.12434 0,-0.0686 0.05568,-0.12434 0.124338,-0.12434 h 0.870359 v -0.87035 c 0,-0.0686 0.05568,-0.12434 0.124338,-0.12434 0.06867,0 0.124338,0.0556 0.124338,0.12434 z m -0.124338,2.73542 c -1.44206,0 -2.611082,-1.16901 -2.611082,-2.61108 0,-1.44207 1.169022,-2.61108 2.611082,-2.61108 1.44206,0 2.611082,1.16901 2.611082,2.61108 0,1.44207 -1.169022,2.61108 -2.611082,2.61108 z m 0,-0.24868 c 1.304722,0 2.362408,-1.05768 2.362408,-2.3624 0,-1.30471 -1.057686,-2.3624 -2.362408,-2.3624 -1.304723,0 -2.362407,1.05769 -2.362407,2.3624 0,1.30472 1.057684,2.3624 2.362407,2.3624 z"
       inkscape:connector-curvature="0"
       style="stroke-width:0.26458332" />
    <path
       id="path913"
       d="M 77.867754,119.86022 V 119.504 c 0,-0.32812 0.265983,-0.59409 0.59409,-0.59409 h 1.419168 c 0.03154,-0.002 0.06439,0.008 0.09066,0.0347 l 0.712908,0.71291 c 0.0263,0.0263 0.0368,0.0591 0.03479,0.0906 v 1.89444 c 0,0.32809 -0.265984,0.59409 -0.594089,0.59409 h -0.356455 v 0.35621 c 0,0.32811 -0.265984,0.59408 -0.59409,0.59408 h -1.663452 c -0.328109,0 -0.594092,-0.26597 -0.594092,-0.59408 v -2.13873 c 0,-0.3281 0.265983,-0.59409 0.594092,-0.59409 z m 0,0.23763 H 77.5113 c -0.196865,0 -0.356454,0.15959 -0.356454,0.35645 v 2.13872 c 0,0.19687 0.159589,0.35646 0.356454,0.35646 h 1.663453 c 0.196863,0 0.356454,-0.15959 0.356454,-0.35646 v -0.35622 h -0.59409 c -0.06561,0 -0.118819,-0.0532 -0.118819,-0.11881 0,-0.0657 0.0532,-0.11882 0.118819,-0.11882 h 1.18818 c 0.196864,0 0.356454,-0.15959 0.356454,-0.35645 v -1.78227 H 79.88766 c -0.06561,0 -0.118818,-0.0532 -0.118818,-0.11882 v -0.59409 h -1.306998 c -0.196864,0 -0.356454,0.1596 -0.356454,0.35646 v 1.18793 c 0,0.0656 -0.0532,0.11883 -0.118816,0.11883 h -2e-6 c -0.06562,0 -0.118818,-0.0532 -0.118818,-0.11883 z m 2.138725,-0.47505 h 0.307239 l -0.307239,-0.30723 z m -0.880943,0.95032 h -0.426057 c -0.06562,0 -0.118816,-0.0532 -0.118816,-0.11882 0,-0.0656 0.0532,-0.11882 0.118816,-0.11882 h 0.712909 c 0.06562,0 0.118819,0.0532 0.118819,0.11882 v 0.7129 c 0,0.0656 -0.0532,0.11882 -0.118819,0.11882 -0.06562,0 -0.118818,-0.0532 -0.118818,-0.11882 v -0.42605 l -1.222981,1.22299 c -0.0464,0.0464 -0.121633,0.0464 -0.168034,0 -0.0464,-0.0465 -0.0464,-0.12166 0,-0.16804 z"
       inkscape:connector-curvature="0"
       style="stroke-width:0.26458332" />
    <rect
       style="opacity:1;fill:none;fill-opacity:1;stroke:#000000;stroke-width:0.09999999;stroke-linecap:round;stroke-linejoin:round;stroke-miterlimit:4;stroke-dasharray:none;stroke-dashoffset:0;stroke-opacity:1"
       id="rect924"
       width="38.453403"
       height="4.379499"
       x="50.313488"
       y="112.24695" />
    <rect
       style="opacity:1;fill:none;fill-opacity:1;stroke:#000000;stroke-width:0.09999997;stroke-linecap:round;stroke-linejoin:round;stroke-miterlimit:4;stroke-dasharray:none;stroke-dashoffset:0;stroke-opacity:1"
       id="rect924-8"
       width="38.453403"
       height="4.7648864"
       x="52.100853"
       y="106.66802" />
  </g>
</svg>
